<?xml version="1.0" encoding="UTF-8" standalone="no"?>
<!DOCTYPE svg PUBLIC "-//W3C//DTD SVG 1.1//EN" "http://www.w3.org/Graphics/SVG/1.1/DTD/svg11.dtd">
<svg xmlns="http://www.w3.org/2000/svg" xmlns:dc="http://purl.org/dc/elements/1.1/" xmlns:xl="http://www.w3.org/1999/xlink" version="1.1" viewBox="37.5 5.04 485 82.42562" width="485" height="82.42562">
  <defs>
    <marker orient="auto" overflow="visible" markerUnits="strokeWidth" id="SharpArrow_Marker" stroke-linejoin="miter" stroke-miterlimit="10" viewBox="-3 -3 7 6" markerWidth="7" markerHeight="6" color="#36218e">
      <g>
        <path d="M 2.3333333 0 L -1.4 -1.4 L 0 0 L 0 0 L -1.4 1.4 Z" fill="currentColor" stroke="currentColor" stroke-width="1"/>
      </g>
    </marker>
  </defs>
  <g id="Canvas_1" stroke="none" stroke-opacity="1" fill="none" stroke-dasharray="none" fill-opacity="1">
    <title>Canvas 1</title>
    <g id="Canvas_1_Layer_1">
      <title>Layer 1</title>
      <g id="Graphic_181">
        <path d="M 380 38.53186 L 512 38.53186 C 516.97056 38.53186 521 42.561297 521 47.53186 L 521 64.53186 C 521 69.50242 516.97056 73.53186 512 73.53186 L 380 73.53186 C 375.02944 73.53186 371 69.50242 371 64.53186 L 371 47.53186 C 371 42.561297 375.02944 38.53186 380 38.53186 Z" fill="#71cff2"/>
        <path d="M 380 38.53186 L 512 38.53186 C 516.97056 38.53186 521 42.561297 521 47.53186 L 521 64.53186 C 521 69.50242 516.97056 73.53186 512 73.53186 L 380 73.53186 C 375.02944 73.53186 371 69.50242 371 64.53186 L 371 47.53186 C 371 42.561297 375.02944 38.53186 380 38.53186 Z" stroke="#36218e" stroke-linecap="butt" stroke-linejoin="round" stroke-width="3"/>
        <text transform="translate(376 48.35782)" fill="#36218e">
          <tspan font-family="Helvetica Neue" font-weight="bold" font-size="12" fill="#36218e" x="43.672" y="12" xml:space="preserve">Outcome</tspan>
        </text>
      </g>
      <g id="Line_182">
        <line x1="205" y1="56.03186" x2="359.3" y2="56.03186" marker-end="url(#SharpArrow_Marker)" stroke="#36218e" stroke-linecap="butt" stroke-linejoin="round" stroke-width="3"/>
      </g>
      <g id="Graphic_183">
        <path d="M 48 38.53186 L 196 38.53186 C 200.97056 38.53186 205 42.561297 205 47.53186 L 205 64.53186 C 205 69.50242 200.97056 73.53186 196 73.53186 L 48 73.53186 C 43.029437 73.53186 39 69.50242 39 64.53186 L 39 47.53186 C 39 42.561297 43.029437 38.53186 48 38.53186 Z" fill="#71cff2"/>
        <path d="M 48 38.53186 L 196 38.53186 C 200.97056 38.53186 205 42.561297 205 47.53186 L 205 64.53186 C 205 69.50242 200.97056 73.53186 196 73.53186 L 48 73.53186 C 43.029437 73.53186 39 69.50242 39 64.53186 L 39 47.53186 C 39 42.561297 43.029437 38.53186 48 38.53186 Z" stroke="#36218e" stroke-linecap="butt" stroke-linejoin="round" stroke-width="3"/>
        <text transform="translate(44 48.35782)" fill="#36218e">
          <tspan font-family="Helvetica Neue" font-weight="bold" font-size="12" fill="#36218e" x="51.558" y="12" xml:space="preserve">Predictor</tspan>
        </text>
      </g>
      <g id="Graphic_184">
        <text transform="translate(255 69.07362)" fill="#666">
          <tspan font-family="Helvetica Neue" font-size="14" fill="#666" x="0" y="13" xml:space="preserve">Total effect</tspan>
        </text>
      </g>
      <g id="Graphic_185">
        <text transform="translate(44 10.04)" fill="#666">
          <tspan font-family="Helvetica Neue" font-size="14" fill="#666" x="0" y="13" xml:space="preserve">Simple relationship</tspan>
        </text>
      </g>
    </g>
  </g>
</svg>
