<?xml version="1.0" encoding="UTF-8" standalone="no"?>
<!DOCTYPE svg PUBLIC "-//W3C//DTD SVG 1.1//EN" "http://www.w3.org/Graphics/SVG/1.1/DTD/svg11.dtd">
<svg xmlns:dc="http://purl.org/dc/elements/1.1/" xmlns="http://www.w3.org/2000/svg" version="1.1" xmlns:xl="http://www.w3.org/1999/xlink" viewBox="16.56 67.68 483.12 300.3" width="483.12" height="300.3">
  <defs>
    <marker orient="auto" overflow="visible" markerUnits="strokeWidth" id="SharpArrow_Marker" stroke-linejoin="miter" stroke-miterlimit="10" viewBox="-3 -3 7 6" markerWidth="7" markerHeight="6" color="#36218e">
      <g>
        <path d="M 2.3333333 0 L -1.4 -1.4 L 0 0 L 0 0 L -1.4 1.4 Z" fill="currentColor" stroke="currentColor" stroke-width="1"/>
      </g>
    </marker>
    <marker orient="auto" overflow="visible" markerUnits="strokeWidth" id="SharpArrow_Marker_2" stroke-linejoin="miter" stroke-miterlimit="10" viewBox="-3 -3 7 6" markerWidth="7" markerHeight="6" color="#007928">
      <g>
        <path d="M 2.3333333 0 L -1.4 -1.4 L 0 0 L 0 0 L -1.4 1.4 Z" fill="currentColor" stroke="currentColor" stroke-width="1"/>
      </g>
    </marker>
  </defs>
  <g id="Canvas_1" fill-opacity="1" stroke="none" stroke-opacity="1" stroke-dasharray="none" fill="none">
    <title>Canvas 1</title>
    <g id="Canvas_1_base">
      <title>base</title>
      <g id="Graphic_14"/>
    </g>
    <g id="Canvas_1_Layer_1">
      <title>Layer 1</title>
      <g id="Graphic_13">
        <path d="M 106.2 73 L 484.84005 73 C 489.8106 73 493.84005 77.02944 493.84005 82 L 493.84005 129 C 493.84005 133.97056 489.8106 138 484.84005 138 L 106.2 138 C 101.22944 138 97.2 133.97056 97.2 129 L 97.2 82 C 97.2 77.02944 101.22944 73 106.2 73 Z" fill="#71cff2"/>
        <path d="M 106.2 73 L 484.84005 73 C 489.8106 73 493.84005 77.02944 493.84005 82 L 493.84005 129 C 493.84005 133.97056 489.8106 138 484.84005 138 L 106.2 138 C 101.22944 138 97.2 133.97056 97.2 129 L 97.2 82 C 97.2 77.02944 101.22944 73 106.2 73 Z" stroke="#36218e" stroke-linecap="butt" stroke-linejoin="round" stroke-width="3"/>
        <text transform="translate(102.2 89.18697)" fill="#36218e">
          <tspan font-family="Helvetica Neue" font-weight="bold" font-size="12" fill="#36218e" x="182.47702" y="12" xml:space="preserve">SS</tspan>
          <tspan font-family="Helvetica Neue" font-weight="bold" font-size="10" fill="#36218e" y="16" xml:space="preserve">T</tspan>
          <tspan font-family="Helvetica Neue" font-weight="bold" font-size="12" fill="#36218e" y="12" xml:space="preserve"> </tspan>
          <tspan font-family="Helvetica Neue" font-size="12" fill="#36218e" x="153.76802" y="29.29007" xml:space="preserve">Total variability</tspan>
        </text>
      </g>
    </g>
    <g id="Canvas_1_Layer_2">
      <title>Layer 2</title>
      <g id="Graphic_12">
        <path d="M 32 183 L 327.63998 183 C 332.61054 183 336.64 187.02944 336.64 192 L 336.64 239 C 336.64 243.97056 332.61054 248 327.63998 248 L 32 248 C 27.029437 248 23 243.97056 23 239 L 23 192 C 23 187.02944 27.029437 183 32 183 Z" fill="#00ab86"/>
        <path d="M 32 183 L 327.63998 183 C 332.61054 183 336.64 187.02944 336.64 192 L 336.64 239 C 336.64 243.97056 332.61054 248 327.63998 248 L 32 248 C 27.029437 248 23 243.97056 23 239 L 23 192 C 23 187.02944 27.029437 183 32 183 Z" stroke="#007928" stroke-linecap="round" stroke-linejoin="round" stroke-width="3"/>
        <text transform="translate(28 199.18697)" fill="white">
          <tspan font-family="Helvetica Neue" font-weight="bold" font-size="12" fill="white" x="139.497" y="12" xml:space="preserve">SS</tspan>
          <tspan font-family="Helvetica Neue" font-weight="bold" font-size="10" fill="white" y="16" xml:space="preserve">M</tspan>
          <tspan font-family="Helvetica Neue" font-weight="bold" font-size="12" fill="white" y="12" xml:space="preserve"> </tspan>
          <tspan font-family="Helvetica Neue" font-size="12" fill="white" x="10.675992" y="29.29007" xml:space="preserve">Variance explained by the experimental manipulation</tspan>
        </text>
      </g>
      <g id="Graphic_11">
        <path d="M 389.2574 183 L 454.25746 183 C 459.228 183 463.25746 187.02944 463.25746 192 L 463.25746 239 C 463.25746 243.97056 459.228 248 454.25746 248 L 389.2574 248 C 384.28684 248 380.2574 243.97056 380.2574 239 L 380.2574 192 C 380.2574 187.02944 384.28684 183 389.2574 183 Z" fill="#e1cc69"/>
        <path d="M 389.2574 183 L 454.25746 183 C 459.228 183 463.25746 187.02944 463.25746 192 L 463.25746 239 C 463.25746 243.97056 459.228 248 454.25746 248 L 389.2574 248 C 384.28684 248 380.2574 243.97056 380.2574 239 L 380.2574 192 C 380.2574 187.02944 384.28684 183 389.2574 183 Z" stroke="#99990f" stroke-linecap="round" stroke-linejoin="round" stroke-width="3"/>
        <text transform="translate(385.2574 192.01897)" fill="#545554">
          <tspan font-family="Helvetica Neue" font-weight="bold" font-size="12" fill="#545554" x="25.10203" y="12" xml:space="preserve">SS</tspan>
          <tspan font-family="Helvetica Neue" font-weight="bold" font-size="10" fill="#545554" y="16" xml:space="preserve">R</tspan>
          <tspan font-family="Helvetica Neue" font-size="12" fill="#545554" x="2.9420305" y="29.29007" xml:space="preserve">Unexplained </tspan>
          <tspan font-family="Helvetica Neue" font-size="12" fill="#545554" x="13.94603" y="43.62607" xml:space="preserve">variance</tspan>
        </text>
      </g>
      <g id="Line_10">
        <line x1="333.94833" y1="138.98543" x2="375.86017" y2="175.50632" marker-end="url(#SharpArrow_Marker)" stroke="#36218e" stroke-linecap="butt" stroke-linejoin="round" stroke-width="3"/>
      </g>
      <g id="Line_9">
        <line x1="260.6112" y1="138.68903" x2="223.2082" y2="174.24933" marker-end="url(#SharpArrow_Marker)" stroke="#36218e" stroke-linecap="butt" stroke-linejoin="round" stroke-width="3"/>
      </g>
    </g>
    <g id="Canvas_1_Layer_3">
      <title>Layer 3</title>
      <g id="Graphic_8">
        <path d="M 32 293 L 103 293 C 107.97056 293 112 297.02944 112 302 L 112 357.48 C 112 362.45055 107.97056 366.48 103 366.48 L 32 366.48 C 27.029437 366.48 23 362.45055 23 357.48 L 23 302 C 23 297.02944 27.029437 293 32 293 Z" fill="#b83a9d" fill-opacity=".5958462"/>
        <path d="M 32 293 L 103 293 C 107.97056 293 112 297.02944 112 302 L 112 357.48 C 112 362.45055 107.97056 366.48 103 366.48 L 32 366.48 C 27.029437 366.48 23 362.45055 23 357.48 L 23 302 C 23 297.02944 27.029437 293 32 293 Z" stroke="#b83a9d" stroke-linecap="round" stroke-linejoin="round" stroke-width="3"/>
        <text transform="translate(28 297.04896)" fill="white">
          <tspan font-family="Helvetica Neue" font-weight="bold" font-size="13" fill="white" x="27.638" y="13" xml:space="preserve">SS</tspan>
          <tspan font-family="Helvetica Neue" font-style="italic" font-weight="bold" font-size="10" fill="white" y="17" xml:space="preserve">A</tspan>
          <tspan font-family="Helvetica Neue" font-size="13" fill="white" x="14.7025" y="31.29007" xml:space="preserve">Variance </tspan>
          <tspan font-family="Helvetica Neue" font-size="13" fill="white" x="2.541" y="46.65407" xml:space="preserve">explained by </tspan>
          <tspan font-family="Helvetica Neue" font-size="13" fill="white" x="10.731" y="62.01807" xml:space="preserve">variable </tspan>
          <tspan font-family="Helvetica Neue" font-style="italic" font-size="13" fill="white" y="62.01807" xml:space="preserve">A</tspan>
        </text>
      </g>
      <g id="Graphic_7">
        <path d="M 144.31999 293 L 215.32 293 C 220.29055 293 224.32 297.02944 224.32 302 L 224.32 357.48 C 224.32 362.45055 220.29055 366.48 215.32 366.48 L 144.31999 366.48 C 139.34943 366.48 135.31999 362.45055 135.31999 357.48 L 135.31999 302 C 135.31999 297.02944 139.34943 293 144.31999 293 Z" fill="#36218e" fill-opacity=".5"/>
        <path d="M 144.31999 293 L 215.32 293 C 220.29055 293 224.32 297.02944 224.32 302 L 224.32 357.48 C 224.32 362.45055 220.29055 366.48 215.32 366.48 L 144.31999 366.48 C 139.34943 366.48 135.31999 362.45055 135.31999 357.48 L 135.31999 302 C 135.31999 297.02944 139.34943 293 144.31999 293 Z" stroke="#36218e" stroke-linecap="butt" stroke-linejoin="round" stroke-width="3"/>
        <text transform="translate(140.31999 297.04896)" fill="white">
          <tspan font-family="Helvetica Neue" font-weight="bold" font-size="13" fill="white" x="27.453" y="13" xml:space="preserve">SS</tspan>
          <tspan font-family="Helvetica Neue" font-style="italic" font-weight="bold" font-size="10" fill="white" y="17" xml:space="preserve">B</tspan>
          <tspan font-family="Helvetica Neue" font-weight="bold" font-size="13" fill="white" y="13" xml:space="preserve"> </tspan>
          <tspan font-family="Helvetica Neue" font-size="13" fill="white" x="14.7025" y="31.29007" xml:space="preserve">Variance </tspan>
          <tspan font-family="Helvetica Neue" font-size="13" fill="white" x="2.541" y="46.65407" xml:space="preserve">explained by </tspan>
          <tspan font-family="Helvetica Neue" font-size="13" fill="white" x="10.614" y="62.01807" xml:space="preserve">variable </tspan>
          <tspan font-family="Helvetica Neue" font-style="italic" font-size="13" fill="white" y="62.01807" xml:space="preserve">B</tspan>
        </text>
      </g>
      <g id="Line_6">
        <line x1="146.81458" y1="249.0696" x2="112.85735" y2="283.6073" marker-end="url(#SharpArrow_Marker_2)" stroke="#007928" stroke-linecap="round" stroke-linejoin="round" stroke-width="3"/>
      </g>
      <g id="Line_5">
        <line x1="179.82" y1="249.5" x2="179.82" y2="279.8" marker-end="url(#SharpArrow_Marker_2)" stroke="#007928" stroke-linecap="round" stroke-linejoin="round" stroke-width="3"/>
      </g>
      <g id="Graphic_4">
        <path d="M 254.28003 293 L 370.28 293 C 375.25056 293 379.28 297.02944 379.28 302 L 379.28 357.48 C 379.28 362.45055 375.25056 366.48 370.28 366.48 L 254.28003 366.48 C 249.30947 366.48 245.28003 362.45055 245.28003 357.48 L 245.28003 302 C 245.28003 297.02944 249.30947 293 254.28003 293 Z" fill="#dc5e76"/>
        <path d="M 254.28003 293 L 370.28 293 C 375.25056 293 379.28 297.02944 379.28 302 L 379.28 357.48 C 379.28 362.45055 375.25056 366.48 370.28 366.48 L 254.28003 366.48 C 249.30947 366.48 245.28003 362.45055 245.28003 357.48 L 245.28003 302 C 245.28003 297.02944 249.30947 293 254.28003 293 Z" stroke="#b1001c" stroke-linecap="round" stroke-linejoin="round" stroke-width="2"/>
        <text transform="translate(250.28003 295.50545)" fill="white">
          <tspan font-family="Helvetica Neue" font-weight="bold" font-size="13" fill="white" x="43.527985" y="13" xml:space="preserve">SS</tspan>
          <tspan font-family="Helvetica Neue" font-style="italic" font-weight="bold" font-size="10" fill="white" y="17" xml:space="preserve">A×B</tspan>
          <tspan font-family="Helvetica Neue" font-weight="bold" font-size="13" fill="white" y="19" xml:space="preserve"> </tspan>
          <tspan font-family="Helvetica Neue" font-size="13" fill="white" x="7.347985" y="34.37709" xml:space="preserve">Variance explained </tspan>
          <tspan font-family="Helvetica Neue" font-size="13" fill="white" x="4.0914847" y="49.74109" xml:space="preserve">by the interaction of </tspan>
          <tspan font-family="Helvetica Neue" font-style="italic" font-size="13" fill="white" x="38.638985" y="65.10509" xml:space="preserve">A</tspan>
          <tspan font-family="Helvetica Neue" font-size="13" fill="white" y="65.10509" xml:space="preserve"> and </tspan>
          <tspan font-family="Helvetica Neue" font-style="italic" font-size="13" fill="white" y="65.10509" xml:space="preserve">B</tspan>
        </text>
      </g>
      <g id="Line_3">
        <line x1="218.63929" y1="248.97966" x2="260.0631" y2="284.70557" marker-end="url(#SharpArrow_Marker_2)" stroke="#007928" stroke-linecap="round" stroke-linejoin="round" stroke-width="3"/>
      </g>
    </g>
  </g>
</svg>
