<?xml version="1.0" encoding="UTF-8" standalone="no"?>
<!DOCTYPE svg PUBLIC "-//W3C//DTD SVG 1.1//EN" "http://www.w3.org/Graphics/SVG/1.1/DTD/svg11.dtd">
<svg xmlns:xl="http://www.w3.org/1999/xlink" xmlns="http://www.w3.org/2000/svg" xmlns:dc="http://purl.org/dc/elements/1.1/" version="1.1" viewBox="44.666667 182.52 498.4982 193.95998" width="498.4982" height="193.95998">
  <defs>
    <marker orient="auto" overflow="visible" markerUnits="strokeWidth" id="SharpArrow_Marker" stroke-linejoin="miter" stroke-miterlimit="10" viewBox="-3 -3 7 6" markerWidth="7" markerHeight="6" color="#36218e">
      <g>
        <path d="M 2.3333333 0 L -1.4 -1.4 L 0 0 L 0 0 L -1.4 1.4 Z" fill="currentColor" stroke="currentColor" stroke-width="1"/>
      </g>
    </marker>
    <marker orient="auto" overflow="visible" markerUnits="strokeWidth" id="SharpArrow_Marker_2" stroke-linejoin="miter" stroke-miterlimit="10" viewBox="-3 -3 7 6" markerWidth="7" markerHeight="6" color="#99990f">
      <g>
        <path d="M 2.3333333 0 L -1.4 -1.4 L 0 0 L 0 0 L -1.4 1.4 Z" fill="currentColor" stroke="currentColor" stroke-width="1"/>
      </g>
    </marker>
    <marker orient="auto" overflow="visible" markerUnits="strokeWidth" id="SharpArrow_Marker_3" stroke-linejoin="miter" stroke-miterlimit="10" viewBox="-3 -3 7 6" markerWidth="7" markerHeight="6" color="#36218e">
      <g>
        <path d="M 3 0 L -1.8 -1.8 L 0 0 L 0 0 L -1.8 1.8 Z" fill="currentColor" stroke="currentColor" stroke-width="1"/>
      </g>
    </marker>
    <marker orient="auto" overflow="visible" markerUnits="strokeWidth" id="SharpArrow_Marker_4" stroke-linejoin="miter" stroke-miterlimit="10" viewBox="-4 -3 7 6" markerWidth="7" markerHeight="6" color="#36218e">
      <g>
        <path d="M -3 0 L 1.8 1.8 L 0 0 L 0 0 L 1.8 -1.8 Z" fill="currentColor" stroke="currentColor" stroke-width="1"/>
      </g>
    </marker>
  </defs>
  <g id="Canvas_1" stroke-dasharray="none" stroke-opacity="1" fill="none" fill-opacity="1" stroke="none">
    <title>Canvas 1</title>
    <g id="Canvas_1_Layer_1">
      <title>Layer 1</title>
      <g id="Graphic_19">
        <path d="M 89.64 339.98 L 198 339.98 C 202.97056 339.98 207 344.00943 207 348.98 L 207 365.98 C 207 370.95055 202.97056 374.98 198 374.98 L 89.64 374.98 C 84.66944 374.98 80.64 370.95055 80.64 365.98 L 80.64 348.98 C 80.64 344.00943 84.66944 339.98 89.64 339.98 Z" fill="#71cff2"/>
        <path d="M 89.64 339.98 L 198 339.98 C 202.97056 339.98 207 344.00943 207 348.98 L 207 365.98 C 207 370.95055 202.97056 374.98 198 374.98 L 89.64 374.98 C 84.66944 374.98 80.64 370.95055 80.64 365.98 L 80.64 348.98 C 80.64 344.00943 84.66944 339.98 89.64 339.98 Z" stroke="#36218e" stroke-linecap="butt" stroke-linejoin="round" stroke-width="3"/>
        <text transform="translate(85.64 349.80595)" fill="#36218e">
          <tspan font-family="Helvetica Neue" font-weight="bold" font-size="12" fill="#36218e" x="29.284" y="12" xml:space="preserve">Behaviour</tspan>
        </text>
      </g>
      <g id="Line_18">
        <line x1="207" y1="279.5" x2="280.29378" y2="279.5" marker-end="url(#SharpArrow_Marker)" stroke="#36218e" stroke-linecap="butt" stroke-linejoin="round" stroke-width="3"/>
      </g>
      <g id="Graphic_17">
        <path d="M 300.99378 262 L 376.87036 262 C 381.84092 262 385.87036 266.02944 385.87036 271 L 385.87036 288 C 385.87036 292.97056 381.84092 297 376.87036 297 L 300.99378 297 C 296.0232 297 291.99378 292.97056 291.99378 288 L 291.99378 271 C 291.99378 266.02944 296.0232 262 300.99378 262 Z" fill="#e1cc69"/>
        <path d="M 300.99378 262 L 376.87036 262 C 381.84092 262 385.87036 266.02944 385.87036 271 L 385.87036 288 C 385.87036 292.97056 381.84092 297 376.87036 297 L 300.99378 297 C 296.0232 297 291.99378 292.97056 291.99378 288 L 291.99378 271 C 291.99378 266.02944 296.0232 262 300.99378 262 Z" stroke="#99990f" stroke-linecap="round" stroke-linejoin="round" stroke-width="3"/>
        <text transform="translate(296.99378 271.82596)" fill="#4b3d2a">
          <tspan font-family="Helvetica Neue" font-weight="bold" font-size="12" fill="#4b3d2a" x="16.61229" y="12" xml:space="preserve">Intention</tspan>
        </text>
      </g>
      <g id="Graphic_16">
        <path d="M 89.64 262 L 198 262 C 202.97056 262 207 266.02944 207 271 L 207 288 C 207 292.97056 202.97056 297 198 297 L 89.64 297 C 84.66944 297 80.64 292.97056 80.64 288 L 80.64 271 C 80.64 266.02944 84.66944 262 89.64 262 Z" fill="#71cff2"/>
        <path d="M 89.64 262 L 198 262 C 202.97056 262 207 266.02944 207 271 L 207 288 C 207 292.97056 202.97056 297 198 297 L 89.64 297 C 84.66944 297 80.64 292.97056 80.64 288 L 80.64 271 C 80.64 266.02944 84.66944 262 89.64 262 Z" stroke="#36218e" stroke-linecap="butt" stroke-linejoin="round" stroke-width="3"/>
        <text transform="translate(85.64 271.82596)" fill="#36218e">
          <tspan font-family="Helvetica Neue" font-weight="bold" font-size="12" fill="#36218e" x="8.398" y="12" xml:space="preserve">Subjective norms</tspan>
        </text>
      </g>
      <g id="Line_15">
        <line x1="385.87036" y1="279.5" x2="428.7156" y2="279.5" marker-end="url(#SharpArrow_Marker_2)" stroke="#99990f" stroke-linecap="round" stroke-linejoin="round" stroke-width="3"/>
      </g>
      <g id="Line_20">
        <line x1="207" y1="357.48" x2="328.29635" y2="301.8756" marker-end="url(#SharpArrow_Marker)" stroke="#36218e" stroke-linecap="butt" stroke-linejoin="round" stroke-width="3"/>
      </g>
      <g id="Graphic_21">
        <path d="M 449.4324 262 L 532.6649 262 C 537.63544 262 541.6649 266.02944 541.6649 271 L 541.6649 288 C 541.6649 292.97056 537.63544 297 532.6649 297 L 449.4324 297 C 444.46184 297 440.4324 292.97056 440.4324 288 L 440.4324 271 C 440.4324 266.02944 444.46184 262 449.4324 262 Z" fill="#dc5e76"/>
        <path d="M 449.4324 262 L 532.6649 262 C 537.63544 262 541.6649 266.02944 541.6649 271 L 541.6649 288 C 541.6649 292.97056 537.63544 297 532.6649 297 L 449.4324 297 C 444.46184 297 440.4324 292.97056 440.4324 288 L 440.4324 271 C 440.4324 266.02944 444.46184 262 449.4324 262 Z" stroke="#951256" stroke-linecap="round" stroke-linejoin="round" stroke-width="3"/>
        <text transform="translate(445.4324 271.82596)" fill="white">
          <tspan font-family="Helvetica Neue" font-weight="bold" font-size="12" fill="white" x="16.720238" y="12" xml:space="preserve">Behaviour</tspan>
        </text>
      </g>
      <g id="Graphic_22">
        <path d="M 89.64 184.02 L 198 184.02 C 202.97056 184.02 207 188.04945 207 193.02 L 207 210.02 C 207 214.99057 202.97056 219.02 198 219.02 L 89.64 219.02 C 84.66944 219.02 80.64 214.99057 80.64 210.02 L 80.64 193.02 C 80.64 188.04945 84.66944 184.02 89.64 184.02 Z" fill="#71cff2"/>
        <path d="M 89.64 184.02 L 198 184.02 C 202.97056 184.02 207 188.04945 207 193.02 L 207 210.02 C 207 214.99057 202.97056 219.02 198 219.02 L 89.64 219.02 C 84.66944 219.02 80.64 214.99057 80.64 210.02 L 80.64 193.02 C 80.64 188.04945 84.66944 184.02 89.64 184.02 Z" stroke="#36218e" stroke-linecap="butt" stroke-linejoin="round" stroke-width="3"/>
        <text transform="translate(85.64 193.84597)" fill="#36218e">
          <tspan font-family="Helvetica Neue" font-weight="bold" font-size="12" fill="#36218e" x="32.296" y="12" xml:space="preserve">Attitudes</tspan>
        </text>
      </g>
      <g id="Line_23">
        <line x1="207" y1="201.52" x2="328.29635" y2="257.1244" marker-end="url(#SharpArrow_Marker)" stroke="#36218e" stroke-linecap="butt" stroke-linejoin="round" stroke-width="3"/>
      </g>
      <g id="Line_24">
        <path d="M 77.39456 210.23056 C 73.26634 220.24884 68.33333 230.25685 68.33333 240.33333 C 68.33333 250.4352 73.291225 260.6106 77.42574 270.77287" marker-end="url(#SharpArrow_Marker_3)" marker-start="url(#SharpArrow_Marker_4)" stroke="#36218e" stroke-linecap="butt" stroke-linejoin="round" stroke-width="2"/>
      </g>
      <g id="Line_25">
        <path d="M 76.60264 287.87707 C 71.33882 297.73334 65 307.53434 65 317.66667 C 65 327.91067 71.47932 338.4982 76.77629 349.02206" marker-end="url(#SharpArrow_Marker_3)" marker-start="url(#SharpArrow_Marker_4)" stroke="#36218e" stroke-linecap="butt" stroke-linejoin="round" stroke-width="2"/>
      </g>
      <g id="Line_26">
        <path d="M 76.30486 209.74958 C 64.024145 231.2325 45.666667 251.9383 45.666667 275 C 45.666667 298.3409 64.47133 324.10766 76.74818 349.0295" marker-end="url(#SharpArrow_Marker_3)" marker-start="url(#SharpArrow_Marker_4)" stroke="#36218e" stroke-linecap="butt" stroke-linejoin="round" stroke-width="2"/>
      </g>
      <g id="Line_27">
        <path d="M 207 357.48 C 266.6175 353.5426 338.7633 355.64067 385.87036 345.66667 C 428.0551 336.73487 450.18303 318.11727 479.192 302.82616" marker-end="url(#SharpArrow_Marker)" stroke="#36218e" stroke-linecap="butt" stroke-linejoin="round" stroke-dasharray="12.0,12.0" stroke-width="3"/>
      </g>
    </g>
  </g>
</svg>
