<?xml version="1.0" encoding="UTF-8" standalone="no"?>
<!DOCTYPE svg PUBLIC "-//W3C//DTD SVG 1.1//EN" "http://www.w3.org/Graphics/SVG/1.1/DTD/svg11.dtd">
<svg xmlns:xl="http://www.w3.org/1999/xlink" xmlns:dc="http://purl.org/dc/elements/1.1/" xmlns="http://www.w3.org/2000/svg" version="1.1" viewBox="114.26734 218.9585 616.33526 329.0415" width="616.33526" height="329.0415">
  <defs>
    <marker orient="auto" overflow="visible" markerUnits="strokeWidth" id="SharpArrow_Marker" stroke-linejoin="miter" stroke-miterlimit="10" viewBox="-3 -3 7 6" markerWidth="7" markerHeight="6" color="#951256">
      <g>
        <path d="M 2.3333333 0 L -1.4 -1.4 L 0 0 L 0 0 L -1.4 1.4 Z" fill="currentColor" stroke="currentColor" stroke-width="1"/>
      </g>
    </marker>
  </defs>
  <g id="Canvas_1" fill-opacity="1" stroke-opacity="1" stroke="none" stroke-dasharray="none" fill="none">
    <title>Canvas 1</title>
    <rect fill="white" x="114.26734" y="218.9585" width="616.33526" height="329.0415"/>
    <g id="Canvas_1_base">
      <title>base</title>
      <g id="Graphic_3">
        <path d="M 241.49994 220.4585 L 411.8313 220.4585 C 416.8019 220.4585 420.8313 224.48793 420.8313 229.4585 L 420.8313 269.4585 C 420.8313 274.42906 416.8019 278.4585 411.8313 278.4585 L 241.49994 278.4585 C 236.52938 278.4585 232.49994 274.42906 232.49994 269.4585 L 232.49994 229.4585 C 232.49994 224.48793 236.52938 220.4585 241.49994 220.4585 Z" fill="#dc5e76"/>
        <path d="M 241.49994 220.4585 L 411.8313 220.4585 C 416.8019 220.4585 420.8313 224.48793 420.8313 229.4585 L 420.8313 269.4585 C 420.8313 274.42906 416.8019 278.4585 411.8313 278.4585 L 241.49994 278.4585 C 236.52938 278.4585 232.49994 274.42906 232.49994 269.4585 L 232.49994 229.4585 C 232.49994 224.48793 236.52938 220.4585 241.49994 220.4585 Z" stroke="#951256" stroke-linecap="butt" stroke-linejoin="round" stroke-width="3"/>
        <text transform="translate(237.49994 226.93637)" fill="white">
          <tspan font-family="Helvetica Neue" font-weight="bold" font-size="18" fill="white" x="43.841695" y="18" xml:space="preserve">Happiness</tspan>
          <tspan font-family="Helvetica Neue" font-weight="bold" font-size="18" fill="white" x="69.833695" y="40.522125" xml:space="preserve">(pre)</tspan>
        </text>
      </g>
      <g id="Graphic_5">
        <path d="M 594.1026 350.49664 L 720.1026 350.49664 C 725.0732 350.49664 729.1026 354.5261 729.1026 359.49664 L 729.1026 399.49664 C 729.1026 404.4672 725.0732 408.49664 720.1026 408.49664 L 594.1026 408.49664 C 589.13204 408.49664 585.1026 404.4672 585.1026 399.49664 L 585.1026 359.49664 C 585.1026 354.5261 589.13204 350.49664 594.1026 350.49664 Z" fill="#e1cc69"/>
        <path d="M 594.1026 350.49664 L 720.1026 350.49664 C 725.0732 350.49664 729.1026 354.5261 729.1026 359.49664 L 729.1026 399.49664 C 729.1026 404.4672 725.0732 408.49664 720.1026 408.49664 L 594.1026 408.49664 C 589.13204 408.49664 585.1026 404.4672 585.1026 399.49664 L 585.1026 359.49664 C 585.1026 354.5261 589.13204 350.49664 594.1026 350.49664 Z" stroke="#99990f" stroke-linecap="round" stroke-linejoin="round" stroke-width="3"/>
        <text transform="translate(590.1026 356.9745)" fill="#4b3d2a">
          <tspan font-family="Helvetica Neue" font-weight="bold" font-size="18" fill="#4b3d2a" x="21.676" y="18" xml:space="preserve">Happiness</tspan>
          <tspan font-family="Helvetica Neue" font-weight="bold" font-size="18" fill="#4b3d2a" x="42.673" y="40.522125" xml:space="preserve">(post)</tspan>
        </text>
      </g>
      <g id="Line_6">
        <path d="M 422.31127 265.25684 L 448 269.5 L 590.2916 344.3513" marker-end="url(#SharpArrow_Marker)" stroke="#951256" stroke-linecap="butt" stroke-linejoin="round" stroke-width="3"/>
      </g>
      <g id="Graphic_11">
        <text transform="translate(467.5 260.77253)" fill="#951256">
          <tspan font-family="Helvetica Neue" font-style="italic" font-size="18" fill="#951256" x="15.161" y="17" xml:space="preserve">b</tspan>
          <tspan font-family="Helvetica Neue" font-size="9" fill="#951256" y="21" xml:space="preserve">1</tspan>
        </text>
      </g>
    </g>
  </g>
</svg>
