<?xml version="1.0" encoding="UTF-8" standalone="no"?>
<!DOCTYPE svg PUBLIC "-//W3C//DTD SVG 1.1//EN" "http://www.w3.org/Graphics/SVG/1.1/DTD/svg11.dtd">
<svg xmlns:xl="http://www.w3.org/1999/xlink" xmlns:dc="http://purl.org/dc/elements/1.1/" xmlns="http://www.w3.org/2000/svg" version="1.1" viewBox="157 275.5 393.5 179" width="393.5" height="179">
  <defs>
    <marker orient="auto" overflow="visible" markerUnits="strokeWidth" id="SharpArrow_Marker" stroke-linejoin="miter" stroke-miterlimit="10" viewBox="-3 -3 7 6" markerWidth="7" markerHeight="6" color="#951256">
      <g>
        <path d="M 2.3333333 0 L -1.4 -1.4 L 0 0 L 0 0 L -1.4 1.4 Z" fill="currentColor" stroke="currentColor" stroke-width="1"/>
      </g>
    </marker>
  </defs>
  <g id="Canvas_1" fill-opacity="1" stroke-opacity="1" stroke="none" stroke-dasharray="none" fill="none">
    <title>Canvas 1</title>
    <g id="Canvas_1_b">
      <title>b</title>
      <g id="Graphic_170">
        <path d="M 186 277 L 470 277 C 474.97056 277 479 281.02944 479 286 L 479 333 C 479 337.97056 474.97056 342 470 342 L 186 342 C 181.02944 342 177 337.97056 177 333 L 177 286 C 177 281.02944 181.02944 277 186 277 Z" fill="#dc5e76"/>
        <path d="M 186 277 L 470 277 C 474.97056 277 479 281.02944 479 286 L 479 333 C 479 337.97056 474.97056 342 470 342 L 186 342 C 181.02944 342 177 337.97056 177 333 L 177 286 C 177 281.02944 181.02944 277 186 277 Z" stroke="#951256" stroke-linecap="butt" stroke-linejoin="round" stroke-width="3"/>
        <text transform="translate(182 301.31145)" fill="white">
          <tspan font-family="Helvetica Neue" font-weight="bold" font-size="13" fill="white" x="61.994" y="13" xml:space="preserve">Total variance in happiness</tspan>
        </text>
      </g>
      <g id="Graphic_171">
        <path d="M 167 388 L 300 388 C 304.97056 388 309 392.02943 309 397 L 309 444 C 309 448.97055 304.97056 453 300 453 L 167 453 C 162.02944 453 158 448.97055 158 444 L 158 397 C 158 392.02943 162.02944 388 167 388 Z" fill="#00ab86"/>
        <path d="M 167 388 L 300 388 C 304.97056 388 309 392.02943 309 397 L 309 444 C 309 448.97055 304.97056 453 300 453 L 167 453 C 162.02944 453 158 448.97055 158 444 L 158 397 C 158 392.02943 162.02944 388 167 388 Z" stroke="#005c5d" stroke-linecap="round" stroke-linejoin="round" stroke-width="2"/>
        <text transform="translate(163 405.1519)" fill="white">
          <tspan font-family="Helvetica Neue" font-weight="bold" font-size="12" fill="white" x="8.178" y="12" xml:space="preserve">Variance explained by </tspan>
          <tspan font-family="Helvetica Neue" font-weight="bold" font-size="12" fill="white" x="47.73" y="27.348083" xml:space="preserve">puppies</tspan>
        </text>
      </g>
      <g id="Graphic_172">
        <path d="M 356 388 L 489 388 C 493.97056 388 498 392.02944 498 397 L 498 444 C 498 448.97056 493.97056 453 489 453 L 356 453 C 351.02944 453 347 448.97056 347 444 L 347 397 C 347 392.02944 351.02944 388 356 388 Z" fill="#71cff2"/>
        <path d="M 356 388 L 489 388 C 493.97056 388 498 392.02944 498 397 L 498 444 C 498 448.97056 493.97056 453 489 453 L 356 453 C 351.02944 453 347 448.97056 347 444 L 347 397 C 347 392.02944 351.02944 388 356 388 Z" stroke="#36218e" stroke-linecap="butt" stroke-linejoin="round" stroke-width="3"/>
      </g>
      <g id="Line_173">
        <line x1="356.31716" y1="342.76143" x2="386.27424" y2="377.9491" marker-end="url(#SharpArrow_Marker)" stroke="#951256" stroke-linecap="butt" stroke-linejoin="round" stroke-width="3"/>
      </g>
      <g id="Line_174">
        <line x1="299.68283" y1="342.76143" x2="269.40164" y2="378.3298" marker-end="url(#SharpArrow_Marker)" stroke="#951256" stroke-linecap="butt" stroke-linejoin="round" stroke-width="3"/>
      </g>
      <g id="Graphic_182">
        <text transform="translate(352 405.1519)" fill="#36218e">
          <tspan font-family="Helvetica Neue" font-weight="bold" font-size="12" fill="#36218e" x="2.956" y="12" xml:space="preserve">Unexplained </tspan>
          <tspan font-family="Helvetica Neue" font-weight="bold" font-size="12" fill="#36218e" x="14.164" y="27.348083" xml:space="preserve">variance</tspan>
        </text>
      </g>
      <g id="Graphic_181">
        <title>Rectangle</title>
        <path d="M 443 388 L 540 388 C 544.97056 388 549 392.02944 549 397 L 549 444 C 549 448.97056 544.97056 453 540 453 L 443 453 C 438.02944 453 434 448.97056 434 444 L 434 397 C 434 392.02944 438.02944 388 443 388 Z" fill="#f4e752" fill-opacity=".69360695"/>
        <path d="M 443 388 L 540 388 C 544.97056 388 549 392.02944 549 397 L 549 444 C 549 448.97056 544.97056 453 540 453 L 443 453 C 438.02944 453 434 448.97056 434 444 L 434 397 C 434 392.02944 438.02944 388 443 388 Z" stroke="#666" stroke-linecap="round" stroke-linejoin="round" stroke-width="1"/>
      </g>
      <g id="Graphic_180">
        <path d="M 443 388 L 540 388 C 544.97056 388 549 392.02944 549 397 L 549 444 C 549 448.97056 544.97056 453 540 453 L 443 453 C 438.02944 453 434 448.97056 434 444 L 434 397 C 434 392.02944 438.02944 388 443 388 Z" fill="#e1cc69" fill-opacity=".3011837"/>
        <path d="M 443 388 L 540 388 C 544.97056 388 549 392.02944 549 397 L 549 444 C 549 448.97056 544.97056 453 540 453 L 443 453 C 438.02944 453 434 448.97056 434 444 L 434 397 C 434 392.02944 438.02944 388 443 388 Z" stroke="#99990f" stroke-linecap="round" stroke-linejoin="round" stroke-width="3"/>
        <text transform="translate(439 397.47787)" fill="#666">
          <tspan font-family="Helvetica Neue" font-weight="bold" font-size="12" fill="#666" x="27.834" y="12" xml:space="preserve">Variance </tspan>
          <tspan font-family="Helvetica Neue" font-weight="bold" font-size="12" fill="#666" x="16.512" y="27.348083" xml:space="preserve">explained by </tspan>
          <tspan font-family="Helvetica Neue" font-weight="bold" font-size="12" fill="#666" x="25.944" y="42.696167" xml:space="preserve">covariate</tspan>
        </text>
      </g>
    </g>
  </g>
</svg>
